<?xml version="1.0" encoding="UTF-8"?>
<svg xmlns="http://www.w3.org/2000/svg" xmlns:xlink="http://www.w3.org/1999/xlink" width="151px" height="30px" viewBox="0 0 151 30" version="1.1">
<g id="surface1">
<path style=" stroke:none;fill-rule:evenodd;fill:rgb(4.705882%,66.666667%,25.490196%);fill-opacity:1;" d="M 150.984375 6.9375 C 150.972656 6.761719 150.871094 6.605469 150.71875 6.519531 C 150.375 6.347656 149.878906 6.226562 148.863281 6.226562 C 146.570312 6.226562 144.542969 7.367188 143.65625 9.273438 L 143.65625 6.945312 C 143.65625 6.847656 143.617188 6.753906 143.550781 6.6875 C 143.480469 6.617188 143.390625 6.578125 143.292969 6.578125 L 139.859375 6.578125 C 139.761719 6.578125 139.671875 6.617188 139.601562 6.6875 C 139.535156 6.753906 139.496094 6.847656 139.496094 6.945312 L 139.496094 22.648438 C 139.496094 22.847656 139.65625 23.011719 139.859375 23.011719 L 143.457031 23.011719 C 143.65625 23.011719 143.820312 22.847656 143.820312 22.648438 L 143.820312 15.585938 C 143.820312 12.429688 146.011719 10.863281 148.863281 10.863281 C 149.527344 10.863281 150.191406 11.007812 150.523438 11.117188 C 150.75 11.195312 150.984375 11.007812 150.984375 10.765625 Z M 128.003906 19.160156 C 125.546875 19.160156 123.644531 17.417969 123.644531 14.789062 C 123.644531 12.160156 125.546875 10.417969 128.003906 10.417969 C 130.460938 10.417969 132.363281 12.160156 132.363281 14.789062 C 132.363281 17.417969 130.460938 19.160156 128.003906 19.160156 Z M 128.003906 6.175781 C 122.957031 6.175781 119.191406 9.660156 119.191406 14.789062 C 119.191406 19.914062 122.960938 23.398438 128.003906 23.398438 C 133.046875 23.398438 136.816406 19.914062 136.816406 14.789062 C 136.816406 9.660156 133.046875 6.175781 128.003906 6.175781 Z M 107.996094 19.160156 C 105.539062 19.160156 103.640625 17.417969 103.640625 14.789062 C 103.640625 12.160156 105.539062 10.417969 107.996094 10.417969 C 110.453125 10.417969 112.355469 12.160156 112.355469 14.789062 C 112.355469 17.417969 110.453125 19.160156 107.996094 19.160156 Z M 107.996094 6.175781 C 102.953125 6.175781 99.183594 9.660156 99.183594 14.789062 C 99.183594 19.914062 102.953125 23.398438 107.996094 23.398438 C 113.042969 23.398438 116.808594 19.914062 116.808594 14.789062 C 116.808594 9.660156 113.042969 6.175781 107.996094 6.175781 Z M 88.019531 19.199219 C 85.5625 19.199219 83.726562 17.457031 83.726562 14.796875 C 83.726562 12.132812 85.5625 10.390625 88.019531 10.390625 C 90.445312 10.390625 92.308594 12.070312 92.308594 14.796875 C 92.308594 17.492188 90.445312 19.199219 88.019531 19.199219 Z M 96.140625 0.0078125 L 92.542969 0.0078125 C 92.34375 0.0078125 92.179688 0.171875 92.179688 0.371094 L 92.179688 8.945312 C 91.066406 7.367188 89.230469 6.152344 86.675781 6.152344 C 82.679688 6.152344 79.269531 9.242188 79.269531 14.796875 C 79.269531 20.351562 82.675781 23.4375 86.738281 23.4375 C 89.132812 23.4375 91 22.386719 92.179688 20.710938 L 92.179688 22.648438 C 92.179688 22.847656 92.34375 23.011719 92.542969 23.011719 L 96.140625 23.011719 C 96.339844 23.011719 96.503906 22.847656 96.503906 22.648438 L 96.503906 0.371094 C 96.503906 0.171875 96.339844 0.0078125 96.140625 0.0078125 Z M 76.890625 18.039062 C 76.890625 21.785156 74.167969 23.394531 69.8125 23.394531 C 66.804688 23.394531 64.214844 22.582031 62.734375 20.902344 C 62.617188 20.765625 62.613281 20.566406 62.722656 20.425781 L 64.804688 17.71875 C 64.867188 17.636719 64.964844 17.585938 65.070312 17.582031 C 65.175781 17.578125 65.277344 17.621094 65.347656 17.699219 C 66.445312 18.828125 68.136719 19.515625 70.238281 19.515625 C 71.449219 19.515625 72.433594 19.191406 72.433594 18.269531 C 72.433594 17.382812 71.550781 17.183594 68.796875 16.59375 C 66.371094 16.097656 63.359375 14.984375 63.359375 11.398438 C 63.359375 8.082031 65.980469 6.175781 70.269531 6.175781 C 73.09375 6.175781 75.125 7.027344 76.554688 8.375 C 76.691406 8.503906 76.703125 8.71875 76.589844 8.867188 L 74.617188 11.4375 C 74.558594 11.515625 74.46875 11.570312 74.371094 11.578125 C 74.273438 11.589844 74.171875 11.558594 74.097656 11.496094 C 73.132812 10.628906 71.523438 10.085938 69.945312 10.085938 C 68.601562 10.085938 67.847656 10.511719 67.847656 11.234375 C 67.847656 12.058594 68.734375 12.253906 71.648438 12.878906 C 74.496094 13.503906 76.890625 14.585938 76.890625 18.039062 Z M 60.261719 18.046875 C 60.261719 21.792969 57.539062 23.40625 53.183594 23.40625 C 50.175781 23.40625 47.585938 22.59375 46.105469 20.910156 C 45.988281 20.773438 45.984375 20.578125 46.09375 20.4375 L 48.171875 17.730469 C 48.238281 17.648438 48.335938 17.597656 48.441406 17.59375 C 48.546875 17.589844 48.648438 17.632812 48.71875 17.707031 C 49.816406 18.835938 51.507812 19.527344 53.609375 19.527344 C 54.820312 19.527344 55.804688 19.199219 55.804688 18.277344 C 55.804688 17.390625 54.921875 17.195312 52.167969 16.601562 C 49.742188 16.109375 46.726562 14.992188 46.726562 11.410156 C 46.726562 8.089844 49.351562 6.183594 53.640625 6.183594 C 56.464844 6.183594 58.492188 7.039062 59.925781 8.382812 C 60.0625 8.511719 60.074219 8.730469 59.960938 8.878906 L 57.984375 11.449219 C 57.859375 11.609375 57.625 11.640625 57.472656 11.503906 C 56.503906 10.640625 54.894531 10.09375 53.316406 10.09375 C 51.972656 10.09375 51.21875 10.523438 51.21875 11.246094 C 51.21875 12.066406 52.105469 12.265625 55.019531 12.890625 C 57.867188 13.511719 60.257812 14.597656 60.257812 18.046875 Z M 38.707031 16.375 C 38.707031 18.179688 37.234375 19.757812 34.941406 19.757812 C 33.433594 19.757812 32.613281 19.066406 32.613281 18.015625 C 32.613281 17.09375 33.304688 16.40625 34.644531 16.207031 L 38.707031 15.714844 Z M 35.859375 6.21875 C 32.425781 6.21875 29.84375 7.371094 28.6875 9.648438 C 28.609375 9.808594 28.660156 10.007812 28.804688 10.113281 L 31.429688 11.992188 C 31.59375 12.109375 31.824219 12.070312 31.921875 11.890625 C 32.652344 10.578125 34.28125 10.128906 35.859375 10.128906 C 37.792969 10.128906 38.707031 10.816406 38.707031 11.769531 L 38.707031 12.035156 C 38.707031 12.429688 38.480469 12.625 37.855469 12.691406 L 33.367188 13.085938 C 30.355469 13.378906 28.128906 15.253906 28.128906 18.246094 C 28.128906 21.269531 30.417969 23.371094 33.664062 23.371094 C 36.21875 23.371094 37.855469 22.125 38.707031 20.808594 L 38.707031 22.679688 C 38.707031 22.878906 38.871094 23.042969 39.070312 23.042969 L 42.667969 23.042969 C 42.871094 23.042969 43.03125 22.882812 43.03125 22.679688 L 43.03125 12.886719 C 43.03125 8.320312 40.640625 6.21875 35.859375 6.21875 Z M 25.160156 0.371094 L 25.160156 22.644531 C 25.160156 22.847656 25 23.011719 24.796875 23.011719 L 21.167969 23.011719 C 20.964844 23.011719 20.804688 22.847656 20.804688 22.644531 L 20.804688 0.363281 C 20.804688 0.164062 20.960938 0.00390625 21.160156 0.00390625 L 24.796875 0.00390625 C 24.996094 0.00390625 25.160156 0.167969 25.160156 0.371094 Z M 8.746094 19.183594 C 6.289062 19.183594 4.453125 17.441406 4.453125 14.777344 C 4.453125 12.117188 6.289062 10.375 8.746094 10.375 C 11.207031 10.375 13.003906 12.050781 13.003906 14.777344 C 13.003906 17.472656 11.203125 19.183594 8.746094 19.183594 Z M 16.867188 6.5625 L 13.277344 6.5625 C 13.074219 6.5625 12.90625 6.726562 12.90625 6.933594 L 12.90625 8.863281 C 11.988281 7.382812 10.089844 6.167969 7.566406 6.167969 C 3.503906 6.167969 0 9.226562 0 14.714844 C 0 20.167969 3.339844 23.15625 7.699219 23.15625 C 10.058594 23.15625 11.890625 22.171875 12.972656 20.628906 L 12.972656 21.679688 C 12.972656 24.046875 11.824219 25.917969 8.15625 25.917969 C 6.3125 25.917969 4.832031 25.304688 3.53125 24.148438 C 3.453125 24.078125 3.347656 24.042969 3.242188 24.058594 C 3.136719 24.074219 3.042969 24.136719 2.984375 24.226562 L 1.359375 26.964844 C 1.148438 27.320312 1.175781 27.519531 1.308594 27.636719 C 2.980469 29.09375 5.160156 29.996094 8.320312 29.996094 C 15.199219 29.996094 17.230469 26.152344 17.230469 21.910156 L 17.230469 6.929688 C 17.230469 6.832031 17.195312 6.738281 17.125 6.667969 C 17.058594 6.601562 16.964844 6.5625 16.867188 6.5625 Z M 16.867188 6.5625 "/>
</g>
</svg>
